<svg xmlns="http://www.w3.org/2000/svg" viewBox="0 0 1024 1024">
  <path d="M 404 454.5 L 390 454.5 L 379.5 447 L 373.5 433 L 366.5 400 L 366.5 346 L 373.5 313 L 388.5 275 L 418.5 232 L 441 209.5 L 472 186.5 L 499 171.5 L 534 157.5 L 556 152.5 L 565 155.5 L 570.5 169 L 570.5 283 L 566.5 324 L 551.5 366 L 534.5 391 L 517 408.5 L 486 430.5 L 452 445.5 Z M 749 553.5 L 714 553.5 L 683 548.5 L 648 533.5 L 624.5 514 L 602.5 484 L 587.5 451 L 573.5 387 L 578 369.5 L 592 361.5 L 624 354.5 L 676 354.5 L 713 361.5 L 757 378.5 L 783 393.5 L 816 420.5 L 833.5 439 L 853.5 467 L 870.5 499 L 880.5 530 L 878.5 548 L 875 550.5 L 782 550.5 Z M 524 560.5 L 498 558.5 L 482 550.5 L 469.5 537 L 462.5 519 L 462.5 498 L 469.5 481 L 481 467.5 L 498 457.5 L 535 459.5 L 558.5 481 L 563.5 494 L 565.5 515 L 558.5 537 L 542 553.5 Z M 401 661.5 L 345 661.5 L 317 656.5 L 265 637.5 L 229 614.5 L 189.5 577 L 167.5 545 L 145.5 496 L 142.5 484 L 143.5 468 L 150 462.5 L 158 461.5 L 321 462.5 L 353 467.5 L 382 481.5 L 408.5 505 L 433.5 542 L 448.5 580 L 457.5 628 L 455.5 644 L 445 651.5 Z M 480 868.5 L 466 867.5 L 460.5 858 L 460.5 706 L 467.5 674 L 477.5 652 L 507 614.5 L 543 587.5 L 596 565.5 L 621 560.5 L 643 560.5 L 654.5 576 L 659.5 602 L 661.5 661 L 654.5 702 L 637.5 745 L 610.5 785 L 574 821.5 L 543 843.5 L 512 858.5 Z" fill="#000000"/>
</svg>
